<mxfile host="app.diagrams.net" modified="2023-10-25T11:11:56.902Z" agent="Mozilla/5.0 (Windows NT 10.0; Win64; x64; rv:109.0) Gecko/20100101 Firefox/118.0" etag="KaLwvGc8uZrI2JgNfDd7" version="22.0.8" type="device">
  <diagram name="Página-1" id="BLd9ssRQLdJdN9mO3VXq">
    <mxGraphModel dx="742" dy="1551" grid="0" gridSize="10" guides="1" tooltips="1" connect="1" arrows="1" fold="1" page="1" pageScale="1" pageWidth="827" pageHeight="1169" math="0" shadow="0">
      <root>
        <mxCell id="0" />
        <mxCell id="1" parent="0" />
        <mxCell id="eOkd-ZiV6jRNgGCran8j-1" value="" style="ellipse;whiteSpace=wrap;html=1;" parent="1" vertex="1">
          <mxGeometry x="173.25" y="-801" width="119.5" height="60" as="geometry" />
        </mxCell>
        <mxCell id="eOkd-ZiV6jRNgGCran8j-5" style="edgeStyle=orthogonalEdgeStyle;rounded=0;orthogonalLoop=1;jettySize=auto;html=1;entryX=0.5;entryY=0;entryDx=0;entryDy=0;exitX=0.5;exitY=1;exitDx=0;exitDy=0;" parent="1" source="61DBjZy_5N-Z6MSdAxQt-9" target="61DBjZy_5N-Z6MSdAxQt-6" edge="1">
          <mxGeometry relative="1" as="geometry">
            <mxPoint x="311.907" y="477.08100000000013" as="targetPoint" />
            <Array as="points">
              <mxPoint x="306" y="427" />
            </Array>
            <mxPoint x="232.05" y="323" as="sourcePoint" />
          </mxGeometry>
        </mxCell>
        <mxCell id="eOkd-ZiV6jRNgGCran8j-3" value="" style="rounded=0;whiteSpace=wrap;html=1;strokeWidth=3;" parent="1" vertex="1">
          <mxGeometry x="124.75" y="-625" width="215" height="102" as="geometry" />
        </mxCell>
        <mxCell id="eOkd-ZiV6jRNgGCran8j-4" value="&lt;font style=&quot;font-size: 23px;&quot;&gt;Página de Login&lt;/font&gt;" style="text;html=1;strokeColor=none;fillColor=none;align=center;verticalAlign=middle;whiteSpace=wrap;rounded=0;" parent="1" vertex="1">
          <mxGeometry x="145" y="-589" width="189" height="30" as="geometry" />
        </mxCell>
        <mxCell id="eOkd-ZiV6jRNgGCran8j-14" style="edgeStyle=orthogonalEdgeStyle;rounded=0;orthogonalLoop=1;jettySize=auto;html=1;" parent="1" target="eOkd-ZiV6jRNgGCran8j-15" edge="1">
          <mxGeometry relative="1" as="geometry">
            <mxPoint x="1118" y="418" as="targetPoint" />
            <mxPoint x="1030" y="263.5" as="sourcePoint" />
          </mxGeometry>
        </mxCell>
        <mxCell id="eOkd-ZiV6jRNgGCran8j-15" value="" style="ellipse;whiteSpace=wrap;html=1;aspect=fixed;" parent="1" vertex="1">
          <mxGeometry x="1108.5" y="243" width="41" height="41" as="geometry" />
        </mxCell>
        <mxCell id="eOkd-ZiV6jRNgGCran8j-16" value="" style="ellipse;whiteSpace=wrap;html=1;aspect=fixed;fillColor=#000000;" parent="1" vertex="1">
          <mxGeometry x="1116" y="250.5" width="26" height="26" as="geometry" />
        </mxCell>
        <mxCell id="oui2Xfrn18oqgatSS5Xl-12" style="edgeStyle=orthogonalEdgeStyle;rounded=0;orthogonalLoop=1;jettySize=auto;html=1;exitX=1;exitY=0.5;exitDx=0;exitDy=0;endArrow=classic;endFill=1;entryX=0;entryY=0.5;entryDx=0;entryDy=0;" parent="1" source="eOkd-ZiV6jRNgGCran8j-24" edge="1" target="BCdQUpEJQyKctQ8JoOsP-3">
          <mxGeometry relative="1" as="geometry">
            <mxPoint x="567.88" y="791" as="targetPoint" />
            <mxPoint x="391.8799999999999" y="737.4835135135138" as="sourcePoint" />
            <Array as="points" />
          </mxGeometry>
        </mxCell>
        <mxCell id="eOkd-ZiV6jRNgGCran8j-24" value="&lt;font style=&quot;font-size: 15px;&quot;&gt;Se guardan las credenciales del usuario en el almacén seguro&lt;/font&gt;" style="rounded=1;whiteSpace=wrap;html=1;" parent="1" vertex="1">
          <mxGeometry x="227" y="744" width="159.5" height="95" as="geometry" />
        </mxCell>
        <mxCell id="QxPlXynxe72Tco_W0ukO-22" value="" style="edgeStyle=orthogonalEdgeStyle;rounded=0;orthogonalLoop=1;jettySize=auto;html=1;exitX=1;exitY=0.5;exitDx=0;exitDy=0;entryX=0;entryY=0.5;entryDx=0;entryDy=0;" parent="1" source="61DBjZy_5N-Z6MSdAxQt-6" target="BCdQUpEJQyKctQ8JoOsP-5" edge="1">
          <mxGeometry relative="1" as="geometry">
            <mxPoint x="489.04761904761904" y="520" as="targetPoint" />
            <mxPoint x="373" y="517.5" as="sourcePoint" />
            <Array as="points" />
          </mxGeometry>
        </mxCell>
        <mxCell id="eOkd-ZiV6jRNgGCran8j-22" value="&lt;font style=&quot;font-size: 15px;&quot;&gt;No&lt;/font&gt;" style="text;html=1;strokeColor=none;fillColor=none;align=center;verticalAlign=middle;whiteSpace=wrap;rounded=0;" parent="1" vertex="1">
          <mxGeometry x="401" y="486" width="60" height="30" as="geometry" />
        </mxCell>
        <mxCell id="QxPlXynxe72Tco_W0ukO-24" value="" style="edgeStyle=orthogonalEdgeStyle;rounded=0;orthogonalLoop=1;jettySize=auto;html=1;exitX=0;exitY=0.5;exitDx=0;exitDy=0;endArrow=classic;endFill=1;" parent="1" source="QxPlXynxe72Tco_W0ukO-47" edge="1">
          <mxGeometry relative="1" as="geometry">
            <mxPoint x="684" y="-100" as="targetPoint" />
            <Array as="points">
              <mxPoint x="63" y="117" />
              <mxPoint x="63" y="-161" />
              <mxPoint x="684" y="-161" />
            </Array>
            <mxPoint x="242" y="215" as="sourcePoint" />
          </mxGeometry>
        </mxCell>
        <mxCell id="QxPlXynxe72Tco_W0ukO-29" value="" style="endArrow=none;html=1;rounded=0;entryX=0.5;entryY=1;entryDx=0;entryDy=0;exitX=0.5;exitY=0;exitDx=0;exitDy=0;" parent="1" source="eOkd-ZiV6jRNgGCran8j-3" target="eOkd-ZiV6jRNgGCran8j-1" edge="1">
          <mxGeometry width="50" height="50" relative="1" as="geometry">
            <mxPoint x="239" y="-404" as="sourcePoint" />
            <mxPoint x="239" y="-328" as="targetPoint" />
          </mxGeometry>
        </mxCell>
        <mxCell id="QxPlXynxe72Tco_W0ukO-34" value="" style="edgeStyle=orthogonalEdgeStyle;rounded=0;orthogonalLoop=1;jettySize=auto;html=1;entryX=0.5;entryY=0;entryDx=0;entryDy=0;" parent="1" source="eOkd-ZiV6jRNgGCran8j-3" target="QxPlXynxe72Tco_W0ukO-33" edge="1">
          <mxGeometry relative="1" as="geometry">
            <mxPoint x="337" y="-396" as="targetPoint" />
            <Array as="points" />
            <mxPoint x="236" y="-119" as="sourcePoint" />
          </mxGeometry>
        </mxCell>
        <mxCell id="QxPlXynxe72Tco_W0ukO-35" value="&lt;font style=&quot;font-size: 15px;&quot;&gt;No&lt;/font&gt;" style="text;html=1;align=center;verticalAlign=middle;resizable=0;points=[];autosize=1;strokeColor=none;fillColor=none;" parent="1" vertex="1">
          <mxGeometry x="236" y="-163" width="37" height="30" as="geometry" />
        </mxCell>
        <mxCell id="QxPlXynxe72Tco_W0ukO-36" value="&lt;font style=&quot;font-size: 15px;&quot;&gt;Si&lt;/font&gt;" style="text;html=1;align=center;verticalAlign=middle;resizable=0;points=[];autosize=1;strokeColor=none;fillColor=none;" parent="1" vertex="1">
          <mxGeometry x="369" y="-249" width="32" height="30" as="geometry" />
        </mxCell>
        <mxCell id="QxPlXynxe72Tco_W0ukO-45" value="" style="edgeStyle=orthogonalEdgeStyle;rounded=0;orthogonalLoop=1;jettySize=auto;html=1;entryX=0.002;entryY=0.333;entryDx=0;entryDy=0;exitX=1;exitY=0.5;exitDx=0;exitDy=0;entryPerimeter=0;" parent="1" source="QxPlXynxe72Tco_W0ukO-33" target="oui2Xfrn18oqgatSS5Xl-6" edge="1">
          <mxGeometry relative="1" as="geometry">
            <mxPoint x="314" y="-131" as="sourcePoint" />
            <mxPoint x="460" y="-109.9860000000001" as="targetPoint" />
            <Array as="points">
              <mxPoint x="367" y="-295" />
              <mxPoint x="367" y="-117" />
            </Array>
          </mxGeometry>
        </mxCell>
        <mxCell id="QxPlXynxe72Tco_W0ukO-49" value="&lt;font style=&quot;font-size: 15px;&quot;&gt;No&lt;/font&gt;" style="text;html=1;align=center;verticalAlign=middle;resizable=0;points=[];autosize=1;strokeColor=none;fillColor=none;" parent="1" vertex="1">
          <mxGeometry x="87.75" y="81" width="37" height="30" as="geometry" />
        </mxCell>
        <mxCell id="QxPlXynxe72Tco_W0ukO-51" value="&lt;font style=&quot;font-size: 15px;&quot;&gt;Si&lt;/font&gt;" style="text;html=1;align=center;verticalAlign=middle;resizable=0;points=[];autosize=1;strokeColor=none;fillColor=none;" parent="1" vertex="1">
          <mxGeometry x="355" y="185" width="32" height="30" as="geometry" />
        </mxCell>
        <mxCell id="oui2Xfrn18oqgatSS5Xl-3" style="edgeStyle=orthogonalEdgeStyle;rounded=0;orthogonalLoop=1;jettySize=auto;html=1;exitX=0.5;exitY=1;exitDx=0;exitDy=0;entryX=0.5;entryY=0;entryDx=0;entryDy=0;" parent="1" source="61DBjZy_5N-Z6MSdAxQt-3" target="QxPlXynxe72Tco_W0ukO-47" edge="1">
          <mxGeometry relative="1" as="geometry">
            <mxPoint x="229" y="19" as="targetPoint" />
          </mxGeometry>
        </mxCell>
        <mxCell id="QxPlXynxe72Tco_W0ukO-33" value="&lt;div style=&quot;font-size: 15px;&quot;&gt;&lt;font style=&quot;font-size: 15px;&quot;&gt;Tiene dispone la biometria y los datos del usuario guardado&lt;br&gt;&lt;/font&gt;&lt;/div&gt;" style="rhombus;whiteSpace=wrap;html=1;" parent="1" vertex="1">
          <mxGeometry x="151.25" y="-391" width="163.5" height="191" as="geometry" />
        </mxCell>
        <mxCell id="QxPlXynxe72Tco_W0ukO-47" value="&lt;font style=&quot;font-size: 15px;&quot;&gt;Los datos del login son correctos&lt;/font&gt;" style="rhombus;whiteSpace=wrap;html=1;" parent="1" vertex="1">
          <mxGeometry x="209" y="36" width="154" height="161" as="geometry" />
        </mxCell>
        <mxCell id="oui2Xfrn18oqgatSS5Xl-4" value="&lt;font style=&quot;font-size: 15px;&quot;&gt;Te mete en la aplicación&lt;/font&gt;" style="rounded=1;whiteSpace=wrap;html=1;" parent="1" vertex="1">
          <mxGeometry x="861" y="228" width="169" height="82" as="geometry" />
        </mxCell>
        <mxCell id="oui2Xfrn18oqgatSS5Xl-6" value="&lt;font style=&quot;font-size: 15px;&quot;&gt;Se activa el botón de la huella&lt;/font&gt;" style="rounded=1;whiteSpace=wrap;html=1;" parent="1" vertex="1">
          <mxGeometry x="455" y="-150" width="98.88" height="100" as="geometry" />
        </mxCell>
        <mxCell id="oui2Xfrn18oqgatSS5Xl-7" style="edgeStyle=orthogonalEdgeStyle;rounded=0;orthogonalLoop=1;jettySize=auto;html=1;exitX=0;exitY=0.25;exitDx=0;exitDy=0;entryX=1;entryY=0.5;entryDx=0;entryDy=0;" parent="1" source="BCdQUpEJQyKctQ8JoOsP-8" target="QxPlXynxe72Tco_W0ukO-47" edge="1">
          <mxGeometry relative="1" as="geometry">
            <mxPoint x="531" y="20" as="targetPoint" />
          </mxGeometry>
        </mxCell>
        <mxCell id="QvRDGKQe24yFTQVjAHwj-2" value="" style="edgeStyle=orthogonalEdgeStyle;rounded=0;orthogonalLoop=1;jettySize=auto;html=1;exitX=1;exitY=0.5;exitDx=0;exitDy=0;entryX=0.5;entryY=0;entryDx=0;entryDy=0;" parent="1" source="oui2Xfrn18oqgatSS5Xl-6" target="QvRDGKQe24yFTQVjAHwj-1" edge="1">
          <mxGeometry relative="1" as="geometry">
            <mxPoint x="665" y="157" as="targetPoint" />
            <mxPoint x="560" y="-114" as="sourcePoint" />
            <Array as="points">
              <mxPoint x="684" y="-100" />
            </Array>
          </mxGeometry>
        </mxCell>
        <mxCell id="QvRDGKQe24yFTQVjAHwj-3" style="edgeStyle=orthogonalEdgeStyle;rounded=0;orthogonalLoop=1;jettySize=auto;html=1;entryX=1;entryY=0.5;entryDx=0;entryDy=0;exitX=0;exitY=0.5;exitDx=0;exitDy=0;" parent="1" source="QvRDGKQe24yFTQVjAHwj-1" target="61DBjZy_5N-Z6MSdAxQt-3" edge="1">
          <mxGeometry relative="1" as="geometry">
            <mxPoint x="298.9999999999999" y="-76" as="targetPoint" />
            <mxPoint x="603.13" y="2.5" as="sourcePoint" />
            <Array as="points">
              <mxPoint x="379" y="-10" />
              <mxPoint x="379" y="-89" />
            </Array>
          </mxGeometry>
        </mxCell>
        <mxCell id="QvRDGKQe24yFTQVjAHwj-4" style="edgeStyle=orthogonalEdgeStyle;rounded=0;orthogonalLoop=1;jettySize=auto;html=1;entryX=0;entryY=0.5;entryDx=0;entryDy=0;" parent="1" source="QvRDGKQe24yFTQVjAHwj-1" target="QvRDGKQe24yFTQVjAHwj-5" edge="1">
          <mxGeometry relative="1" as="geometry">
            <mxPoint x="855" y="-103" as="targetPoint" />
            <Array as="points">
              <mxPoint x="926" y="-10" />
              <mxPoint x="926" y="-10" />
            </Array>
          </mxGeometry>
        </mxCell>
        <mxCell id="QvRDGKQe24yFTQVjAHwj-1" value="&lt;font style=&quot;font-size: 15px;&quot;&gt;El usuario, usa el botón de la huella&lt;/font&gt;" style="rhombus;whiteSpace=wrap;html=1;" parent="1" vertex="1">
          <mxGeometry x="606" y="-83" width="156" height="146" as="geometry" />
        </mxCell>
        <mxCell id="QvRDGKQe24yFTQVjAHwj-16" style="edgeStyle=orthogonalEdgeStyle;rounded=0;orthogonalLoop=1;jettySize=auto;html=1;" parent="1" edge="1">
          <mxGeometry relative="1" as="geometry">
            <mxPoint x="232" y="-191" as="targetPoint" />
            <Array as="points">
              <mxPoint x="1018" y="-191" />
            </Array>
            <mxPoint x="1017.5" y="-76.5" as="sourcePoint" />
          </mxGeometry>
        </mxCell>
        <mxCell id="QvRDGKQe24yFTQVjAHwj-5" value="&lt;font style=&quot;font-size: 15px;&quot;&gt;La huella es correcta&lt;/font&gt;" style="rhombus;whiteSpace=wrap;html=1;" parent="1" vertex="1">
          <mxGeometry x="960" y="-82.5" width="115" height="145" as="geometry" />
        </mxCell>
        <mxCell id="QvRDGKQe24yFTQVjAHwj-8" value="&lt;font style=&quot;font-size: 15px;&quot;&gt;No&lt;/font&gt;" style="text;html=1;align=center;verticalAlign=middle;resizable=0;points=[];autosize=1;strokeColor=none;fillColor=none;" parent="1" vertex="1">
          <mxGeometry x="485.94" y="-39" width="37" height="30" as="geometry" />
        </mxCell>
        <mxCell id="QvRDGKQe24yFTQVjAHwj-9" value="&lt;font style=&quot;font-size: 15px;&quot;&gt;Si&lt;/font&gt;" style="text;html=1;align=center;verticalAlign=middle;resizable=0;points=[];autosize=1;strokeColor=none;fillColor=none;" parent="1" vertex="1">
          <mxGeometry x="845" y="-39" width="32" height="30" as="geometry" />
        </mxCell>
        <mxCell id="QvRDGKQe24yFTQVjAHwj-14" style="edgeStyle=orthogonalEdgeStyle;rounded=0;orthogonalLoop=1;jettySize=auto;html=1;entryX=0;entryY=0.5;entryDx=0;entryDy=0;exitX=0.623;exitY=0.888;exitDx=0;exitDy=0;exitPerimeter=0;" parent="1" source="QxPlXynxe72Tco_W0ukO-47" target="oui2Xfrn18oqgatSS5Xl-4" edge="1">
          <mxGeometry relative="1" as="geometry">
            <Array as="points">
              <mxPoint x="596" y="179" />
              <mxPoint x="596" y="269" />
            </Array>
            <mxPoint x="494.0526315789475" y="171.92105263157873" as="sourcePoint" />
          </mxGeometry>
        </mxCell>
        <mxCell id="QvRDGKQe24yFTQVjAHwj-15" value="&lt;font style=&quot;font-size: 15px;&quot;&gt;Si&lt;/font&gt;" style="text;html=1;align=center;verticalAlign=middle;resizable=0;points=[];autosize=1;strokeColor=none;fillColor=none;" parent="1" vertex="1">
          <mxGeometry x="672" y="237" width="32" height="30" as="geometry" />
        </mxCell>
        <mxCell id="QvRDGKQe24yFTQVjAHwj-24" value="&lt;font style=&quot;font-size: 15px;&quot;&gt;No&lt;/font&gt;" style="text;html=1;align=center;verticalAlign=middle;resizable=0;points=[];autosize=1;strokeColor=none;fillColor=none;" parent="1" vertex="1">
          <mxGeometry x="725" y="-219" width="37" height="30" as="geometry" />
        </mxCell>
        <mxCell id="QvRDGKQe24yFTQVjAHwj-26" value="&lt;font style=&quot;font-size: 15px;&quot;&gt;Si&lt;/font&gt;" style="text;html=1;align=center;verticalAlign=middle;resizable=0;points=[];autosize=1;strokeColor=none;fillColor=none;" parent="1" vertex="1">
          <mxGeometry x="888" y="51" width="32" height="30" as="geometry" />
        </mxCell>
        <mxCell id="61DBjZy_5N-Z6MSdAxQt-4" value="" style="edgeStyle=orthogonalEdgeStyle;rounded=0;orthogonalLoop=1;jettySize=auto;html=1;exitX=0.5;exitY=1;exitDx=0;exitDy=0;entryX=0.5;entryY=0;entryDx=0;entryDy=0;" parent="1" source="QxPlXynxe72Tco_W0ukO-33" target="61DBjZy_5N-Z6MSdAxQt-3" edge="1">
          <mxGeometry relative="1" as="geometry">
            <mxPoint x="232" y="36" as="targetPoint" />
            <mxPoint x="233" y="-200" as="sourcePoint" />
          </mxGeometry>
        </mxCell>
        <mxCell id="61DBjZy_5N-Z6MSdAxQt-3" value="&lt;font style=&quot;font-size: 15px;&quot;&gt;Rellena los datos del formulario&lt;/font&gt;" style="rounded=1;whiteSpace=wrap;html=1;" parent="1" vertex="1">
          <mxGeometry x="164.12" y="-127" width="137.75" height="77" as="geometry" />
        </mxCell>
        <mxCell id="61DBjZy_5N-Z6MSdAxQt-6" value="&lt;font style=&quot;font-size: 15px;&quot;&gt;Llega una notificación, de si quieres acceder por la huella&lt;/font&gt;" style="rhombus;whiteSpace=wrap;html=1;" parent="1" vertex="1">
          <mxGeometry x="230" y="455" width="152" height="130" as="geometry" />
        </mxCell>
        <mxCell id="61DBjZy_5N-Z6MSdAxQt-10" value="" style="edgeStyle=orthogonalEdgeStyle;rounded=0;orthogonalLoop=1;jettySize=auto;html=1;entryX=0.5;entryY=0;entryDx=0;entryDy=0;exitX=0.5;exitY=1;exitDx=0;exitDy=0;" parent="1" source="QxPlXynxe72Tco_W0ukO-47" target="61DBjZy_5N-Z6MSdAxQt-9" edge="1">
          <mxGeometry relative="1" as="geometry">
            <mxPoint x="306" y="455" as="targetPoint" />
            <Array as="points">
              <mxPoint x="286" y="214" />
              <mxPoint x="446" y="214" />
            </Array>
            <mxPoint x="286" y="197" as="sourcePoint" />
          </mxGeometry>
        </mxCell>
        <mxCell id="61DBjZy_5N-Z6MSdAxQt-9" value="&lt;font style=&quot;font-size: 15px;&quot;&gt;Tiene las credenciales guardada ó distinta store y la biometría &lt;br&gt;&lt;/font&gt;" style="rhombus;whiteSpace=wrap;html=1;" parent="1" vertex="1">
          <mxGeometry x="334" y="243" width="224" height="171" as="geometry" />
        </mxCell>
        <mxCell id="61DBjZy_5N-Z6MSdAxQt-11" value="&lt;font style=&quot;font-size: 15px;&quot;&gt;No&lt;/font&gt;" style="text;html=1;strokeColor=none;fillColor=none;align=center;verticalAlign=middle;whiteSpace=wrap;rounded=0;" parent="1" vertex="1">
          <mxGeometry x="335" y="393" width="60" height="30" as="geometry" />
        </mxCell>
        <mxCell id="BCdQUpEJQyKctQ8JoOsP-1" style="edgeStyle=orthogonalEdgeStyle;rounded=0;orthogonalLoop=1;jettySize=auto;html=1;entryX=0.494;entryY=-0.052;entryDx=0;entryDy=0;entryPerimeter=0;" edge="1" parent="1" source="61DBjZy_5N-Z6MSdAxQt-6" target="eOkd-ZiV6jRNgGCran8j-24">
          <mxGeometry relative="1" as="geometry" />
        </mxCell>
        <mxCell id="BCdQUpEJQyKctQ8JoOsP-2" value="&lt;font style=&quot;font-size: 15px;&quot;&gt;Si&lt;/font&gt;" style="text;html=1;align=center;verticalAlign=middle;resizable=0;points=[];autosize=1;strokeColor=none;fillColor=none;" vertex="1" parent="1">
          <mxGeometry x="323" y="639" width="32" height="30" as="geometry" />
        </mxCell>
        <mxCell id="BCdQUpEJQyKctQ8JoOsP-3" value="" style="ellipse;whiteSpace=wrap;html=1;aspect=fixed;" vertex="1" parent="1">
          <mxGeometry x="570.88" y="771" width="41" height="41" as="geometry" />
        </mxCell>
        <mxCell id="BCdQUpEJQyKctQ8JoOsP-4" value="" style="ellipse;whiteSpace=wrap;html=1;aspect=fixed;fillColor=#000000;" vertex="1" parent="1">
          <mxGeometry x="578.38" y="778.5" width="26" height="26" as="geometry" />
        </mxCell>
        <mxCell id="BCdQUpEJQyKctQ8JoOsP-5" value="" style="ellipse;whiteSpace=wrap;html=1;aspect=fixed;" vertex="1" parent="1">
          <mxGeometry x="494" y="499.5" width="41" height="41" as="geometry" />
        </mxCell>
        <mxCell id="BCdQUpEJQyKctQ8JoOsP-6" value="" style="ellipse;whiteSpace=wrap;html=1;aspect=fixed;fillColor=#000000;" vertex="1" parent="1">
          <mxGeometry x="501.5" y="507" width="26" height="26" as="geometry" />
        </mxCell>
        <mxCell id="BCdQUpEJQyKctQ8JoOsP-9" value="" style="edgeStyle=orthogonalEdgeStyle;rounded=0;orthogonalLoop=1;jettySize=auto;html=1;exitX=0.5;exitY=1;exitDx=0;exitDy=0;entryX=0.965;entryY=0.307;entryDx=0;entryDy=0;entryPerimeter=0;" edge="1" parent="1" source="QvRDGKQe24yFTQVjAHwj-5" target="BCdQUpEJQyKctQ8JoOsP-8">
          <mxGeometry relative="1" as="geometry">
            <mxPoint x="352" y="100" as="targetPoint" />
            <mxPoint x="1018" y="63" as="sourcePoint" />
            <Array as="points">
              <mxPoint x="1018" y="82" />
              <mxPoint x="876" y="82" />
              <mxPoint x="876" y="117" />
              <mxPoint x="809" y="117" />
            </Array>
          </mxGeometry>
        </mxCell>
        <mxCell id="BCdQUpEJQyKctQ8JoOsP-8" value="Get Store, comprobar los datos del usuario" style="shape=parallelogram;perimeter=parallelogramPerimeter;whiteSpace=wrap;html=1;fixedSize=1;" vertex="1" parent="1">
          <mxGeometry x="659" y="95" width="136" height="72" as="geometry" />
        </mxCell>
      </root>
    </mxGraphModel>
  </diagram>
</mxfile>
